# xmcd
#
# Track frame offsets:
#	150
#	22902
#	42967
#	59082
#	76285
#	94402
#	113902
#	126272
#	143340
#	161690
#
# Disc length: 2418 seconds
#
# Revision: 2
# Processed by: cddbd v1.5.1PL0 Copyright (c) Steve Scherf et al.
# Submitted via: audiograbber 1.83.01
#
DISCID=8109700a
DTITLE=Various Artist - Country Dance Super Hits
DYEAR=1995
DGENRE=Country
TTITLE0=Joe Diffie - Third Rock From The Sun
TTITLE1=Mary Chapin Carpenter - I Feel Lucky
TTITLE2=Patty Loveless - Blame It On Your Heart
TTITLE3=Collin Raye - I Want You Bad (And That Ain't Good)
TTITLE4=Wade Hayes - Old Enough To Know Better
TTITLE5=Rick Trevino - Just Enough Rope
TTITLE6=Ken Mellons - Jukebox Junkie
TTITLE7=Joe Diffie - Honky Tonk Attitude
TTITLE8=Ricky Van Shelton - Wild Man
TTITLE9=Mary Chapin Carpenter - Down At The Twist and Shout
EXTD=
EXTT0=
EXTT1=
EXTT2=
EXTT3=
EXTT4=
EXTT5=
EXTT6=
EXTT7=
EXTT8=
EXTT9=
PLAYORDER=
